<svg width="100%" height="100%" viewBox="0 0 40 40" xmlns="http://www.w3.org/2000/svg">
  <!-- Circle background -->
  <circle cx="20" cy="20" r="19" fill="#2b2e32" />

  <!-- Original path -->
  <g transform="translate(20 20) scale(0.8) translate(-20 -20)">
    <path d="M20 23.5C18.7875 23.5 17.7015 24.125 17.1119 24.4746C16.7493 24.6896 16.3701 24.9339 16.0158 25.1623L16.0128 25.1642L16.0008 25.1719C15.6368 25.4065 15.2804 25.6361 14.906 25.8638C13.3769 26.7934 11.8358 27.5 10.1266 27.5C5.88479 27.5 2.5 24.1126 2.5 20C2.5 15.8874 5.88479 12.5 10.1266 12.5C11.8358 12.5 13.3769 13.2066 14.906 14.1362C15.2804 14.3639 15.6368 14.5935 16.0008 14.8281L16.0128 14.8358L16.0157 14.8377C16.3701 15.0661 16.7492 15.3104 17.1119 15.5254C17.7015 15.875 18.7875 16.5 20 16.5C21.2125 16.5 22.2985 15.875 22.8881 15.5254C23.2507 15.3104 23.6299 15.0661 23.9842 14.8378L23.9872 14.8358L23.9992 14.8281C24.3632 14.5935 24.7195 14.3639 25.094 14.1362C26.6231 13.2066 28.1642 12.5 29.8734 12.5C34.1152 12.5 37.5 15.8874 37.5 20C37.5 24.1126 34.1152 27.5 29.8734 27.5C28.1642 27.5 26.6231 26.7934 25.094 25.8638C24.7196 25.6361 24.3632 25.4065 23.9992 25.1719L23.9872 25.1642L23.9842 25.1623C23.6299 24.9339 23.2507 24.6896 22.8881 24.4746C22.2985 24.125 21.2125 23.5 20 23.5Z" stroke="white" stroke-width="5"/>
  </g>
</svg>
